<svg width="1600" height="420" viewBox="0 0 1600 420" xmlns="http://www.w3.org/2000/svg" fill="none">
  <defs>
    <linearGradient id="bg" x1="0" y1="0" x2="1600" y2="0" gradientUnits="userSpaceOnUse">
      <stop stop-color="#242424"/>
      <stop offset="1" stop-color="#242424"/>
    </linearGradient>

    <linearGradient id="accent" x1="0" y1="228" x2="0" y2="332" gradientUnits="userSpaceOnUse">
      <stop stop-color="#FB923C"/>
      <stop offset="1" stop-color="#FDBA74"/>
    </linearGradient>
  </defs>

  <!-- Main darker banner -->
  <path
    d="M0 0H1600V175C1460 235 1230 278 800 278C370 278 140 235 0 175V0Z"
    fill="url(#bg)"
  />

  <!-- Smaller dark transition area above orange -->
  <path
    d="M0 182C170 228 430 258 800 258C1170 258 1430 228 1600 182V228C1460 252 1230 276 800 276C370 276 140 252 0 228V182Z"
    fill="#1A1A1A"
    fill-opacity="0.96"
  />

  <!-- Orange accent band -->
  <path
    d="M0 228C170 258 430 286 800 286C1170 286 1430 258 1600 228V272C1430 300 1170 332 800 332C430 332 170 300 0 272V228Z"
    fill="url(#accent)"
  />

  <!-- Centered text -->
  <text
    x="800"
    y="142"
    text-anchor="middle"
    font-family="Arial, Helvetica, sans-serif"
    font-size="60"
    font-weight="800"
    fill="#FFFFFF">
    Jake Gaske
  </text>

  <text
    x="800"
    y="194"
    text-anchor="middle"
    font-family="Arial, Helvetica, sans-serif"
    font-size="28"
    font-weight="500"
    fill="#DBE4EE">
    Game Developer
  </text>
</svg>